<svg xmlns="http://www.w3.org/2000/svg" viewBox="0 0 5397 1040" width="5397" height="1040" role="img" aria-label="La Canchita">
<g fill="#1f7a4f" opacity="0.6" transform="translate(30.0,900) scale(1,-1)"><path transform="translate(0.0,0)" d="M71 0L71 757L165 757L165 0Z"/><path transform="translate(236.8,0)" d="M230 -12Q177 -12 136 7.5Q95 27 72 61.5Q49 96 49 141Q49 184 68 218.5Q87 253 126.5 277Q166 301 226 311L425 344L425 266L247 235Q195 226 171.5 202.5Q148 179 148 144Q148 111 174.5 89Q201 67 241 67Q292 67 329.5 88.5Q367 110 388 147Q409 184 409 228L409 366Q409 410 377 437.5Q345 465 292 465Q246 465 210.5 441Q175 417 158 379L77 421Q92 458 125 487.5Q158 517 202 534Q246 551 294 551Q356 551 403 527.5Q450 504 476.5 462Q503 420 503 366L503 0L412 0L412 102L429 95Q412 64 382.5 39.5Q353 15 314.5 1.5Q276 -12 230 -12Z"/></g>
<g transform="translate(860.6,24.1) scale(10.0676)"><path d="M72.3 29.9 A30 30 0 1 0 72.3 70.1" fill="none" stroke="#1f7a4f" stroke-width="13" stroke-linecap="round"/><circle cx="50" cy="50" r="8.5" fill="#1f7a4f"/></g>
<g fill="#1f7a4f" transform="translate(1711.0,900) scale(1,-1)"><path transform="translate(0.0,0)" d="M224 -12Q165 -12 122 7Q79 26 56 61.5Q33 97 33 146Q33 192 54 227.5Q75 263 118.5 287Q162 311 227 321L394 348L394 238L254 213Q222 207 205 192.5Q188 178 188 151Q188 126 207 112Q226 98 254 98Q291 98 319 114Q347 130 362.5 157.5Q378 185 378 218L378 360Q378 391 353.5 412Q329 433 287 433Q247 433 216.5 411Q186 389 172 353L52 410Q68 456 103 489Q138 522 187 540Q236 558 294 558Q363 558 416 533Q469 508 498.5 463.5Q528 419 528 360L528 0L388 0L388 88L422 94Q398 58 369 34.5Q340 11 304 -0.5Q268 -12 224 -12Z"/><path transform="translate(583.0,0)" d="M55 0L55 546L195 546L195 438L187 462Q206 511 248.5 534.5Q291 558 348 558Q410 558 456.5 532Q503 506 529 459.5Q555 413 555 351L555 0L405 0L405 319Q405 351 392.5 374Q380 397 357.5 410Q335 423 305 423Q276 423 253 410Q230 397 217.5 374Q205 351 205 319L205 0Z"/><path transform="translate(1182.0,0)" d="M323 -12Q241 -12 175.5 25.5Q110 63 71.5 128Q33 193 33 274Q33 355 71 419.5Q109 484 175 521Q241 558 323 558Q384 558 436 537Q488 516 525 478.5Q562 441 578 390L448 334Q434 375 400.5 399Q367 423 323 423Q284 423 253.5 404Q223 385 205.5 351Q188 317 188 273Q188 229 205.5 195Q223 161 253.5 142Q284 123 323 123Q368 123 401 147Q434 171 448 212L578 155Q563 107 526 69Q489 31 437 9.5Q385 -12 323 -12Z"/><path transform="translate(1793.0,0)" d="M55 0L55 757L205 757L205 438L187 462Q206 511 248.5 534.5Q291 558 348 558Q410 558 456.5 532Q503 506 529 459.5Q555 413 555 351L555 0L405 0L405 319Q405 351 392.5 374Q380 397 357.5 410Q335 423 305 423Q276 423 253 410Q230 397 217.5 374Q205 351 205 319L205 0Z"/></g>
<rect x="4158.0" y="364.0" width="150.0" height="536.0" rx="42.0" fill="#1f7a4f"/>
<g transform="translate(4113.0,104.0) scale(2.4000)"><circle cx="50" cy="50" r="45" fill="#ffffff" stroke="#145c3a" stroke-width="6"/><path d="M50 33 L66.2 44.7 L60 63.8 L40 63.8 L33.8 44.7 Z" fill="#145c3a"/><line x1="50" y1="33" x2="50" y2="6" stroke="#145c3a" stroke-width="5"/><line x1="66.2" y1="44.7" x2="92.8" y2="36.1" stroke="#145c3a" stroke-width="5"/><line x1="60" y1="63.8" x2="76.5" y2="86.4" stroke="#145c3a" stroke-width="5"/><line x1="40" y1="63.8" x2="23.5" y2="86.4" stroke="#145c3a" stroke-width="5"/><line x1="33.8" y1="44.7" x2="7.2" y2="36.1" stroke="#145c3a" stroke-width="5"/></g>
<g fill="#1f7a4f" transform="translate(4363.0,900) scale(1,-1)"><path transform="translate(0.0,0)" d="M318 -6Q219 -6 164.5 47.5Q110 101 110 197L110 416L18 416L18 546L23 546Q65 546 87.5 567Q110 588 110 630L110 670L260 670L260 546L388 546L388 416L260 416L260 207Q260 179 270 160.5Q280 142 301 133Q322 124 353 124Q360 124 369 125Q378 126 388 127L388 0Q373 -2 354 -4Q335 -6 318 -6Z"/><path transform="translate(421.0,0)" d="M224 -12Q165 -12 122 7Q79 26 56 61.5Q33 97 33 146Q33 192 54 227.5Q75 263 118.5 287Q162 311 227 321L394 348L394 238L254 213Q222 207 205 192.5Q188 178 188 151Q188 126 207 112Q226 98 254 98Q291 98 319 114Q347 130 362.5 157.5Q378 185 378 218L378 360Q378 391 353.5 412Q329 433 287 433Q247 433 216.5 411Q186 389 172 353L52 410Q68 456 103 489Q138 522 187 540Q236 558 294 558Q363 558 416 533Q469 508 498.5 463.5Q528 419 528 360L528 0L388 0L388 88L422 94Q398 58 369 34.5Q340 11 304 -0.5Q268 -12 224 -12Z"/></g>
</svg>
